HIERARCHY
ROOT Hips
{
    OFFSET 0.000000 0.000000 0.000000
    CHANNELS 6 Xposition Yposition Zposition Zrotation Xrotation Yrotation
    JOINT Spine
    {
        OFFSET -0.000000 14.517291 0.000000
        CHANNELS 3 Zrotation Xrotation Yrotation
        JOINT Spine1
        {
            OFFSET -0.000000 37.558300 0.000000
            CHANNELS 3 Zrotation Xrotation Yrotation
            JOINT Neck
            {
                OFFSET -0.000000 37.404057 3.400369
                CHANNELS 3 Zrotation Xrotation Yrotation
                JOINT Head
                {
                    OFFSET -0.000000 24.785618 -3.540803
                    CHANNELS 3 Zrotation Xrotation Yrotation
                    End Site
                    {
                        OFFSET -0.000000 35.408028 0.000000
                    }
                }
            }
            JOINT LeftShoulder
            {
                OFFSET 6.992933 33.973492 -0.192664
                CHANNELS 3 Zrotation Xrotation Yrotation
                JOINT LeftArm
                {
                    OFFSET 21.527611 0.000000 0.000000
                    CHANNELS 3 Zrotation Xrotation Yrotation
                    JOINT LeftForeArm
                    {
                        OFFSET 56.353916 0.000000 0.000000
                        CHANNELS 3 Zrotation Xrotation Yrotation
                        JOINT LeftHand
                        {
                            OFFSET 47.774071 0.000000 0.000000
                            CHANNELS 3 Zrotation Xrotation Yrotation
                            End Site
                            {
                                OFFSET 26.556021 0.000000 0.000000
                            }
                        }
                    }
                }
            }
            JOINT RightShoulder
            {
                OFFSET -7.065357 33.973492 -0.192664
                CHANNELS 3 Zrotation Xrotation Yrotation
                JOINT RightArm
                {
                    OFFSET -21.527611 0.000000 0.000000
                    CHANNELS 3 Zrotation Xrotation Yrotation
                    JOINT RightForeArm
                    {
                        OFFSET -56.353916 0.000000 0.000000
                        CHANNELS 3 Zrotation Xrotation Yrotation
                        JOINT RightHand
                        {
                            OFFSET -47.774071 0.000000 0.000000
                            CHANNELS 3 Zrotation Xrotation Yrotation
                            End Site
                            {
                                OFFSET -26.556021 0.000000 0.000000
                            }
                        }
                    }
                }
            }
        }
    }
    JOINT LeftUpLeg
    {
        OFFSET 17.704014 0.000000 0.000000
        CHANNELS 3 Zrotation Xrotation Yrotation
        JOINT LeftLeg
        {
            OFFSET -0.000000 -81.181816 0.000000
            CHANNELS 3 Zrotation Xrotation Yrotation
            JOINT LeftFoot
            {
                OFFSET -0.000000 -62.821102 0.000000
                CHANNELS 3 Zrotation Xrotation Yrotation
                JOINT LeftToeBase
                {
                    OFFSET -0.000000 -11.507608 26.556021
                    CHANNELS 3 Zrotation Xrotation Yrotation
                    End Site
                    {
                        OFFSET -0.000000 0.000000 7.081605
                    }
                }
            }
        }
    }
    JOINT RightUpLeg
    {
        OFFSET -17.704014 0.000000 0.000000
        CHANNELS 3 Zrotation Xrotation Yrotation
        JOINT RightLeg
        {
            OFFSET -0.000000 -81.181816 0.000000
            CHANNELS 3 Zrotation Xrotation Yrotation
            JOINT RightFoot
            {
                OFFSET -0.000000 -62.821102 0.000000
                CHANNELS 3 Zrotation Xrotation Yrotation
                JOINT RightToeBase
                {
                    OFFSET -0.000000 -11.507608 26.556021
                    CHANNELS 3 Zrotation Xrotation Yrotation
                    End Site
                    {
                        OFFSET -0.000000 0.000000 7.081605
                    }
                }
            }
        }
    }
}
MOTION
Frames:    4
Frame Time:    0.008333
33.320896    142.566177    52.977951    4.204946    2.378187    -66.013062    0.223813    5.156718    -2.562796    -1.093066    -0.822664    -0.859910    24.830368    13.015901    21.829727    -22.581553    -0.797980    18.736650    11.773409    8.933105    -21.226162    -7.883153    6.079173    -29.657660    -9.886319    16.847069    -33.455891    -0.786325    14.270415    -42.327415    -4.589537    -3.308633    -7.808135    33.178463    -28.207735    47.115181    10.328904    -34.702263    110.476379    31.070690    -37.571651    39.433537    39.142467    -23.922962    34.086487    -39.528046    48.822834    13.327196    4.758511    -17.757902    44.891739    0.000000    0.000000    0.000000    -33.494446    -17.611191    -16.619040    3.151618    34.085667    -5.040132    21.168728    -7.053349    7.590176    0.000000    0.000000    0.000000    
33.340408    142.578293    52.984341    4.213497    2.371462    -66.023743    0.198690    5.153571    -2.557579    -1.067556    -0.809792    -0.858260    24.826542    12.984000    21.844961    -22.559294    -0.775309    18.752960    11.799343    8.991726    -21.250402    -7.832927    6.294638    -29.695953    -10.057023    17.252878    -33.597649    -0.693354    14.583591    -42.361099    -4.582432    -3.318262    -7.818511    33.145363    -28.234234    47.085258    10.369863    -34.609421    110.474205    30.989962    -37.551918    39.443901    39.118813    -23.920862    34.096966    -39.495060    48.808350    13.296531    4.768058    -17.747223    44.903553    0.000000    0.000000    0.000000    -33.492538    -17.622232    -16.610462    3.132076    34.060593    -5.035673    21.181236    -7.025438    7.563669    0.000000    0.000000    0.000000    
33.361774    142.592789    52.990265    4.223747    2.368499    -66.034729    0.180860    5.145721    -2.551776    -1.058150    -0.801699    -0.856486    24.854084    12.995341    21.849678    -22.581902    -0.787276    18.754162    11.831147    9.041919    -21.289812    -7.772514    6.544309    -29.716883    -10.255515    17.542091    -33.784100    -0.670041    14.791596    -42.327721    -4.558750    -3.323509    -7.818735    33.117367    -28.205748    47.096874    10.358936    -34.640350    110.448669    31.022045    -37.548008    39.464905    39.097801    -23.922394    34.107399    -39.465214    48.792267    13.276592    4.789876    -17.728439    44.902340    0.000000    0.000000    0.000000    -33.487579    -17.632421    -16.607897    3.112718    34.028934    -5.031312    21.175011    -7.001079    7.543638    0.000000    0.000000    0.000000    
33.387413    142.607025    53.000153    4.239769    2.358679    -66.046028    0.159844    5.140595    -2.547711    -1.041892    -0.795349    -0.855301    24.875502    12.979396    21.863491    -22.607611    -0.762067    18.765488    11.833216    9.082329    -21.318289    -7.698679    6.766730    -29.747847    -10.492758    17.867386    -33.916924    -0.560335    14.997150    -42.284828    -4.558995    -3.315078    -7.829023    33.124805    -28.192764    47.129898    10.364784    -34.639526    110.442680    31.022638    -37.550957    39.470531    39.067665    -23.929647    34.106060    -39.441490    48.774529    13.278836    4.766487    -17.734571    44.901615    0.000000    0.000000    0.000000    -33.498581    -17.640869    -16.599047    3.111909    33.991463    -5.054263    21.161701    -6.968813    7.538074    0.000000    0.000000    0.000000    
